<?xml version="1.0" encoding="UTF-8"?>
<svg version="1.1" xmlns="http://www.w3.org/2000/svg" width="128" height="128">
<path d="M0 0 C42.24 0 84.48 0 128 0 C128 42.24 128 84.48 128 128 C85.76 128 43.52 128 0 128 C0 85.76 0 43.52 0 0 Z " fill="#000000" transform="translate(0,0)"/>
<path d="M0 0 C2.40234375 0.08203125 2.40234375 0.08203125 5 1 C6.87890625 3.07421875 6.87890625 3.07421875 8.5625 5.6875 C9.15289062 6.59113281 9.74328125 7.49476562 10.3515625 8.42578125 C10.89554688 9.27527344 11.43953125 10.12476563 12 11 C12.8108544 12.12618666 13.62299764 13.25144887 14.4375 14.375 C16 17 16 17 16 21 C18.64 21 21.28 21 24 21 C24.66 22.32 25.32 23.64 26 25 C24 27 24 27 20.875 27.125 C19.92625 27.08375 18.9775 27.0425 18 27 C18.30035156 27.95261719 18.60070313 28.90523437 18.91015625 29.88671875 C19.29042969 31.14097656 19.67070313 32.39523438 20.0625 33.6875 C20.63677734 35.54955078 20.63677734 35.54955078 21.22265625 37.44921875 C21.96785758 40.8531786 21.99851065 42.71559076 21 46 C19.68 46 18.36 46 17 46 C14.14796197 39.77737158 12 33.94667263 12 27 C7.38 27 2.76 27 -2 27 C-2.433125 28.8975 -2.86625 30.795 -3.3125 32.75 C-4.25875825 36.89551231 -5.19821938 39.7665725 -8 43 C-9.32 42.34 -10.64 41.68 -12 41 C-11.68872484 39.41642541 -11.37592711 37.83315007 -11.0625 36.25 C-10.80146484 34.92742187 -10.80146484 34.92742187 -10.53515625 33.578125 C-10.07631512 31.36764947 -9.56663926 29.18487932 -9 27 C-9.804375 26.7525 -10.60875 26.505 -11.4375 26.25 C-14 25 -14 25 -14.8125 22.875 C-14.874375 22.25625 -14.93625 21.6375 -15 21 C-11.91190305 19.23537317 -10.76687864 19 -7 19 C-6.66226562 17.79601562 -6.32453125 16.59203125 -5.9765625 15.3515625 C-5.5263856 13.77594336 -5.07584591 12.20042784 -4.625 10.625 C-4.29242187 9.43390625 -4.29242187 9.43390625 -3.953125 8.21875 C-3.73398437 7.45820312 -3.51484375 6.69765625 -3.2890625 5.9140625 C-3.09006348 5.2123291 -2.89106445 4.5105957 -2.68603516 3.78759766 C-2 2 -2 2 0 0 Z " fill="#FFFFFF" transform="translate(36,43)"/>
<path d="M0 0 C1.8871875 0.0309375 1.8871875 0.0309375 3.8125 0.0625 C4.4725 1.3825 5.1325 2.7025 5.8125 4.0625 C2.98645687 6.88854313 0.17942096 6.80907782 -3.6796875 7.40234375 C-6.62263715 8.17704545 -8.05482055 8.87947833 -10.1875 11.0625 C-11.54200989 14.28319964 -11.54200989 14.28319964 -12.4375 17.9375 C-12.77265625 19.15179688 -13.1078125 20.36609375 -13.453125 21.6171875 C-14.69500556 26.96619516 -14.69500556 26.96619516 -13.0859375 31.984375 C-12.58320312 32.58765625 -12.08046875 33.1909375 -11.5625 33.8125 C-6.45080241 40.22931186 -2.33335697 46.46001232 0.8125 54.0625 C2.38165509 56.83183572 3.97482601 59.58279834 5.60546875 62.31640625 C7.44308438 66.49713049 7.26814593 69.72404008 5.8125 74 C2.73634678 78.71035962 -0.98152324 82.79543198 -6.3125 84.90234375 C-10.0827263 85.65210466 -11.93379368 85.22983821 -15.125 83.125 C-17.83971938 79.09405305 -18.1875 76.91919774 -18.1875 72.0625 C-16.75 69.5625 -16.75 69.5625 -15.1875 68.0625 C-13.8675 68.7225 -12.5475 69.3825 -11.1875 70.0625 C-11.1875 72.7025 -11.1875 75.3425 -11.1875 78.0625 C-6.83632438 77.22573546 -4.67442348 76.61028892 -1.6875 73.25 C0.04073207 69.57750685 -0.0601208 68.8367695 -1.1875 65.0625 C-2.27272552 62.86485033 -3.42432019 60.69926074 -4.625 58.5625 C-6.74268449 54.77807845 -8.6081726 51.09702634 -10.1875 47.0625 C-12.01365481 44.07978048 -13.7364396 41.4998919 -16.25 39.0625 C-19.51639091 35.69074164 -21.09385572 32.56631695 -21.38671875 27.86328125 C-20.98363321 20.17304134 -19.10863208 11.41336079 -13.95703125 5.50390625 C-9.51180462 2.01588992 -5.73805503 -0.09406648 0 0 Z " fill="#FFFFFF" transform="translate(112.1875,31.9375)"/>
<path d="M0 0 C1.11375 0.3403125 1.11375 0.3403125 2.25 0.6875 C2.25 2.0075 2.25 3.3275 2.25 4.6875 C0.29109119 6.08050182 -1.7139118 7.40995446 -3.75 8.6875 C-9.57679896 14.78254034 -11.28405045 26.02270965 -12.09375 34.12890625 C-11.81412319 43.25173101 -8.08076609 51.44536489 -4.54345703 59.72216797 C-3.75 61.6875 -3.75 61.6875 -2.71484375 65.09765625 C-1.92347225 67.99510916 -1.92347225 67.99510916 1.25 69.6875 C4.45379124 69.92996783 4.45379124 69.92996783 7.9375 69.8125 C9.70673828 69.78542969 9.70673828 69.78542969 11.51171875 69.7578125 C12.41535156 69.73460938 13.31898437 69.71140625 14.25 69.6875 C14.91 68.3675 15.57 67.0475 16.25 65.6875 C17.57 66.3475 18.89 67.0075 20.25 67.6875 C19.7547783 71.35214055 19.2291794 73.39582354 16.25 75.6875 C10.45167909 77.62027364 3.25950683 78.17849043 -2.3125 75.41796875 C-4.27039986 73.93874661 -6.02755749 72.43254674 -7.75 70.6875 C-8.41 70.0275 -9.07 69.3675 -9.75 68.6875 C-10.25017572 66.91230988 -10.67671018 65.11600822 -11.0625 63.3125 C-12.3800828 57.69757022 -14.30510203 52.63295457 -16.6640625 47.37890625 C-21.36260818 35.73394952 -18.23728715 22.94383802 -13.75 11.6875 C-10.94935287 6.79887041 -6.28482254 -0.71418438 0 0 Z " fill="#FFFFFF" transform="translate(22.75,30.3125)"/>
<path d="M0 0 C1.32 0.66 2.64 1.32 4 2 C4.02693575 4.12493141 4.04636628 6.24995912 4.0625 8.375 C4.07410156 9.55835938 4.08570312 10.74171875 4.09765625 11.9609375 C4 15 4 15 3 17 C3.90492187 16.94779297 3.90492187 16.94779297 4.828125 16.89453125 C11.4373928 16.67066895 11.4373928 16.67066895 14.5625 18.5 C15.036875 18.995 15.51125 19.49 16 20 C15.34 21.32 14.68 22.64 14 24 C10.04 24 6.08 24 2 24 C3.17550552 28.99589846 4.39629742 32.17106601 8 36 C11.28899737 37.64449869 14.85034736 36.95887015 18.46875 36.83984375 C21 37 21 37 23 39 C22.46428571 42.53571429 22.46428571 42.53571429 21 44 C15.92483547 44.58106956 10.45087178 45.19554721 5.7578125 42.90625 C3.94268257 41.3896081 2.48565974 39.83880837 1 38 C0.50757812 37.44699219 0.01515625 36.89398438 -0.4921875 36.32421875 C-3.99102128 32.02480435 -4.8131725 28.51141134 -5 23 C-4.67 22.34 -4.34 21.68 -4 21 C-5.32 20.67 -6.64 20.34 -8 20 C-8 18.68 -8 17.36 -8 16 C-6.35 15.34 -4.7 14.68 -3 14 C-2.95101562 13.15695313 -2.90203125 12.31390625 -2.8515625 11.4453125 C-2.73941406 9.80175781 -2.73941406 9.80175781 -2.625 8.125 C-2.55539063 7.03445312 -2.48578125 5.94390625 -2.4140625 4.8203125 C-2 2 -2 2 0 0 Z " fill="#FFFFFF" transform="translate(71,52)"/>
<path d="M0 0 C8.09574741 3.46793232 15.46370854 5.77161327 24.125 3 C24.74375 2.67 25.3625 2.34 26 2 C26.99 3.98 26.99 3.98 28 6 C25.23186199 9.0757089 23.44592952 10.74533119 19.31640625 11.47265625 C10.90134346 11.72434213 4.09673931 9.43721298 -3.41796875 5.84375 C-11.06716707 2.34982581 -19.3204952 1.46618312 -27.53125 3.68359375 C-29.37569457 4.40278949 -31.19092585 5.19596704 -33 6 C-34.32 6 -35.64 6 -37 6 C-37 2 -37 2 -34.3125 -0.6875 C-25.56966775 -7.98448919 -9.18781918 -4.51010693 0 0 Z " fill="#FFFFFF" transform="translate(53,16)"/>
<path d="M0 0 C6.2697835 1.84296443 12.54001223 1.98160206 19.02734375 2.2265625 C21.82424811 2.38504396 24.10792668 2.59589962 26.75 3.4375 C26.75 4.7575 26.75 6.0775 26.75 7.4375 C19.60449958 12.20116695 7.74439396 8.82162907 -0.25 7.4375 C-2.23788037 6.9287416 -4.21858038 6.39030534 -6.1875 5.8125 C-10.87787903 4.47139903 -14.38010184 3.70701528 -19.25 4.4375 C-21.88278172 6.17091545 -24.07967823 8.15866214 -26.25 10.4375 C-27.57 9.7775 -28.89 9.1175 -30.25 8.4375 C-29.60330586 7.09436601 -28.93096422 5.76358822 -28.25 4.4375 C-27.6621875 3.1690625 -27.6621875 3.1690625 -27.0625 1.875 C-20.4383339 -7.03336131 -9.00230494 -2.75832819 0 0 Z " fill="#FFFFFF" transform="translate(55.25,112.5625)"/>
<path d="M0 0 C0.66 0 1.32 0 2 0 C3.5078125 2.1171875 3.5078125 2.1171875 5.125 4.875 C5.66382813 5.77992187 6.20265625 6.68484375 6.7578125 7.6171875 C8 10 8 10 8 12 C4.37 12 0.74 12 -3 12 C-2.01 8.04 -1.02 4.08 0 0 Z " fill="#000000" transform="translate(38,52)"/>
<path d="M0 0 C1.32 0.66 2.64 1.32 4 2 C3.34 3.32 2.68 4.64 2 6 C0.68 5.34 -0.64 4.68 -2 4 C-1.34 2.68 -0.68 1.36 0 0 Z " fill="#FFFFFF" transform="translate(89,115)"/>
<path d="M0 0 C1.32 0.66 2.64 1.32 4 2 C3.34 3.32 2.68 4.64 2 6 C0.68 5.34 -0.64 4.68 -2 4 C-1.34 2.68 -0.68 1.36 0 0 Z " fill="#FFFFFF" transform="translate(94,16)"/>
</svg>
